<?xml version="1.0" encoding="UTF-8" standalone="no"?>
<svg width="38px" height="38px" viewBox="0 0 38 38" version="1.1" xmlns="http://www.w3.org/2000/svg" xmlns:xlink="http://www.w3.org/1999/xlink">
    <!-- Generator: Sketch 40.3 (33839) - http://www.bohemiancoding.com/sketch -->
    <title>Icon</title>
    <desc>Created with Sketch.</desc>
    <defs></defs>
    <g id="Main" stroke="none" stroke-width="1" fill="none" fill-rule="evenodd">
        <g id="Settings" fill="#FFFFFF">
            <path d="M30.6921146,18.9669818 C30.6920417,17.4387636 31.6504583,16.1344 33,15.6170182 C32.6436562,14.1285818 32.0552187,12.7297455 31.2745,11.4614545 C30.8096563,11.6677091 30.3098125,11.7708364 29.8101875,11.7708364 C28.8899063,11.7708364 27.9699167,11.4209455 27.2675104,10.7205091 C26.18375,9.63956364 25.9369271,8.0408 26.5252188,6.72269091 C25.2539167,5.94349091 23.851875,5.356 22.3595625,5 C21.8416354,6.34756364 20.5332187,7.30472727 19,7.30472727 C17.4669271,7.30472727 16.1585104,6.34756364 15.6405104,5 C14.1481979,5.356 12.7462292,5.94349091 11.4749271,6.72276364 C12.0632187,8.04072727 11.8163958,9.63941818 10.7325625,10.7205818 C10.0303021,11.4210182 9.11016667,11.7709818 8.18988542,11.7709818 C7.69011458,11.7709818 7.19048958,11.6677818 6.7255,11.4615273 C5.94485417,12.7297455 5.35627083,14.1285091 5,15.6170182 C6.34961458,16.1342545 7.30795833,17.4387636 7.30795833,18.9669818 C7.30795833,20.4948364 6.35041667,21.7986909 5.00160417,22.3163636 C5.35875,23.8048 5.94777083,25.2030545 6.72914583,26.4711273 C7.19296875,26.2659636 7.6915,26.1633455 8.1898125,26.1633455 C9.11016667,26.1633455 10.0301562,26.5133091 10.7324896,27.2137455 C11.8146458,28.2930909 12.0624167,29.8887273 11.4773333,31.2056727 C12.7488542,31.9845818 14.15075,32.5717091 15.6430625,32.9273455 C16.1628125,31.5834182 17.4693333,30.6294545 19,30.6294545 C20.5306667,30.6294545 21.8371875,31.5832727 22.3568646,32.9273455 C23.8493229,32.5717091 25.2511458,31.9845091 26.5227396,31.2055273 C25.9377292,29.8887273 26.1854271,28.2930909 27.2676563,27.2137455 C27.9697708,26.5132364 28.8899062,26.1632727 29.8101146,26.1632727 C30.3085729,26.1632727 30.8068854,26.2658909 31.2708542,26.4711273 C32.0522292,25.2030545 32.64125,23.8048 32.9983958,22.3163636 C31.6495833,21.7986182 30.6921146,20.4946909 30.6921146,18.9669818 L30.6921146,18.9669818 Z M19.065625,24.7745455 C15.8354167,24.7745455 13.2322917,22.1636364 13.2322917,18.9563636 C13.2322917,15.7490182 15.8354167,13.1381818 19.065625,13.1381818 C22.2957604,13.1381818 24.8989583,15.7490182 24.8989583,18.9563636 C24.8989583,22.1636364 22.2957604,24.7745455 19.065625,24.7745455 L19.065625,24.7745455 Z" id="Icon"></path>
        </g>
    </g>
</svg>